<svg xmlns="http://www.w3.org/2000/svg" xmlns:xlink="http://www.w3.org/1999/xlink" viewBox="0 0 933.36 933.36"><defs><style>.cls-1{font-size:800px;font-family:Coves-Bold, Coves;font-weight:700;}.cls-1,.cls-3{stroke:#000;}.cls-1,.cls-3,.cls-5{stroke-miterlimit:10;}.cls-2{fill:url(#linear-gradient);}.cls-3{font-size:400px;font-family:Coves-Light, Coves;font-weight:300;}.cls-4{fill:url(#linear-gradient-2);}.cls-5{fill:none;stroke:#4d1635;}</style><linearGradient id="linear-gradient" x1="337.94" y1="266.4" x2="556.58" y2="497.32" gradientUnits="userSpaceOnUse"><stop offset="0.22" stop-color="#dd5e89" stop-opacity="0.9"/><stop offset="1" stop-color="#f7bb97"/></linearGradient><linearGradient id="linear-gradient-2" x1="550.21" y1="415.27" x2="737.53" y2="613.11" gradientUnits="userSpaceOnUse"><stop offset="0" stop-color="#cc2b5e"/><stop offset="0.24" stop-color="#d54a6a"/><stop offset="0.77" stop-color="#ec9789"/><stop offset="1" stop-color="#f7bb97"/></linearGradient></defs><title>Asset 1</title><g id="Layer_2" data-name="Layer 2"><g id="Layer_1-2" data-name="Layer 1"><text class="cls-1" transform="translate(148.76 481.6) rotate(45)">S</text><path class="cls-2" d="M543.47,420q3,7.46,4.42,11.6l4.69,11.88q5,14.36,8.84,26.51,9.66,31.77,11.88,58.29,5.79,71-40.88,117.66-50.83,50.84-114.63,45.58-64.1-5-123.47-64.36a256.66,256.66,0,0,1-63-101.65,249.69,249.69,0,0,1-9.67-41.15q-1.11-7.74-1.94-15.19-.56-5.54-.55-10.5c-.18-3.5,1.56-5.25,5.25-5.25l61,1.94q4.69.27,5,5c.19,2.39.37,5,.56,7.73q.54,5,1.66,10.5A184.19,184.19,0,0,0,300.12,507a186.32,186.32,0,0,0,44.47,69.88q78.17,78.17,137.56,18.78,22.92-22.92,20.16-59.94-2.22-31.49-25.13-90.32l-.56-1.1L470,425,466.13,415,462,404.26q-4.69-13-8-24Q445.14,352,443.2,328q-5-64.08,37.57-106.62Q526.9,175.28,584.62,180q58,4.42,111.87,58.28a230.9,230.9,0,0,1,56.35,90.6,217.22,217.22,0,0,1,8.83,37q1.11,6.63,1.94,13.54c.18,3.49.27,6.72.27,9.66q.55,5.54-5.24,5.25l-30.11-.83-30.66-.83q-4.7-.27-5.25-4.69c0-2.21-.09-4.52-.27-6.91q-.57-4.41-1.39-9.11a149.67,149.67,0,0,0-6.9-24,159.87,159.87,0,0,0-37.84-59.39q-66-66-115.18-16.85Q511.71,291,514.19,322.22q1.92,26.25,22.37,77.62l.28,1.38Z"/><path d="M543.93,419.82c2.28,6,4.53,12,6.91,17.89l1.76,4.46.44,1.12.38,1.13.76,2.28,3,9.1,3,9.11,1.52,4.55c.48,1.52.92,3.06,1.38,4.6q2.68,9.21,4.87,18.56a240.72,240.72,0,0,1,5.9,37.93,173.23,173.23,0,0,1-1.45,38.34c-.18,1.59-.55,3.15-.84,4.73l-.93,4.71L569.5,583c-.39,1.55-.77,3.11-1.29,4.63l-1.44,4.58-.37,1.15-.42,1.12-.86,2.25c-.58,1.49-1.1,3-1.74,4.48l-2,4.39a136,136,0,0,1-20.86,32.17,170.61,170.61,0,0,1-13.36,13.8c-2.34,2.19-4.8,4.24-7.19,6.37s-5,4-7.54,6a152.26,152.26,0,0,1-33.33,19,133.26,133.26,0,0,1-37.26,9,151.21,151.21,0,0,1-38.3-1.75,159.7,159.7,0,0,1-36.72-11.07,201.48,201.48,0,0,1-33.52-18.65,262.66,262.66,0,0,1-29.93-24,281.07,281.07,0,0,1-26.46-27.77,253.73,253.73,0,0,1-22.19-31.3c-3.35-5.46-6.35-11.12-9.29-16.8s-5.56-11.53-8-17.47-4.64-11.93-6.69-18-3.7-12.26-5.2-18.48-2.77-12.5-3.78-18.82c-.53-3.16-.89-6.34-1.3-9.51l-1.19-9.52c-.31-3.19-.49-6.4-.51-9.6a10.31,10.31,0,0,1,.14-2.46,4.37,4.37,0,0,1,1.22-2.26,6.43,6.43,0,0,1,4.75-1.32l19.17.61,38.33,1.22,2.39.08a8.27,8.27,0,0,1,2.45.33,4.65,4.65,0,0,1,2.17,1.34,5,5,0,0,1,1.13,2.26,14.93,14.93,0,0,1,.27,2.44l.17,2.38c.13,1.59.21,3.2.36,4.77.37,3.16.88,6.31,1.5,9.44s1.18,6.27,1.9,9.38a189.1,189.1,0,0,0,5.24,18.4q3.17,9,7.22,17.72A182.46,182.46,0,0,0,327,556.18a209.69,209.69,0,0,0,25.86,28.17,183.12,183.12,0,0,0,30.42,23.11,110.24,110.24,0,0,0,17.18,8.34,79.8,79.8,0,0,0,18.48,4.67,65.77,65.77,0,0,0,37.15-6.11,86.21,86.21,0,0,0,16.12-10.18c1.24-1,2.5-2,3.68-3s2.41-2.08,3.54-3.21,2.34-2.16,3.41-3.35l1.64-1.73c.55-.58,1-1.21,1.56-1.81a68,68,0,0,0,15.37-34.41c1.88-12.63.73-25.53-1.68-38a320.14,320.14,0,0,0-9.82-37C486,469.41,481.56,457.41,477,445.5v0l-.55-1.11h0v0l-6.61-19.26-7.34-19Q455.34,387,450,367.31a220,220,0,0,1-7.06-40.11c-.9-13.55-.48-27.27,2.28-40.61.59-3.35,1.51-6.63,2.36-9.92.44-1.64,1-3.25,1.52-4.87l.78-2.43.91-2.38a119.21,119.21,0,0,1,8.71-18.42l2.63-4.37c.93-1.43,1.9-2.82,2.85-4.23l1.45-2.1,1.55-2c1-1.34,2-2.72,3.12-4,2.22-2.57,4.36-5.22,6.77-7.63,1.18-1.22,2.3-2.5,3.54-3.66L485.1,217c1.2-1.2,2.5-2.3,3.78-3.42s2.54-2.25,3.85-3.34c2.68-2.09,5.26-4.31,8.06-6.24a136.47,136.47,0,0,1,17.29-10.78l4.56-2.29c1.53-.74,3.11-1.37,4.67-2.06l2.34-1L532,187c1.6-.57,3.18-1.2,4.8-1.72a128.44,128.44,0,0,1,19.84-4.65A134.36,134.36,0,0,1,577,179.42c1.69,0,3.39.17,5.09.25l2.54.14,2.54.26c1.69.18,3.38.33,5.07.55l5,.79c1.68.22,3.34.61,5,1s3.34.65,5,1.11l4.92,1.32c.83.2,1.64.45,2.45.72l2.42.78c3.26,1,6.42,2.25,9.6,3.44,1.59.59,3.13,1.34,4.69,2s3.14,1.31,4.65,2.1a193.83,193.83,0,0,1,34.6,21.42,278.23,278.23,0,0,1,30.24,27.28,230.73,230.73,0,0,1,44.89,67.56c2.69,6.24,5.1,12.59,7.3,19s4,13,5.5,19.62,2.74,13.32,3.65,20.05l1.44,10.09c.21,3.38.22,6.79.35,10.18h0a7.42,7.42,0,0,1-.13,2.44,3.73,3.73,0,0,1-1.33,2.05c-1.39,1-3.15.91-4.73.85l-9.67-.27-19.35-.54-19.35-.52-9.67-.27c-.81,0-1.61,0-2.42-.1A6.21,6.21,0,0,1,695,392a4.38,4.38,0,0,1-1.74-1.7,6.39,6.39,0,0,1-.72-2.33h0L692.3,382a20.82,20.82,0,0,0-.34-2.95l-.44-2.94c-.32-2-.54-3.94-1-5.87s-.86-3.87-1.35-5.8q-1.46-5.76-3.37-11.41c-.63-1.88-1.31-3.74-2-5.6s-1.38-3.72-2.15-5.55a158.12,158.12,0,0,0-24.17-40.81c-2.5-3.08-5.14-6-7.84-8.94s-5.56-5.67-8.44-8.4a182,182,0,0,0-18.28-15.22c-1.59-1.18-3.26-2.26-4.9-3.38S614.7,263,613,262a98.61,98.61,0,0,0-10.59-5.41,80.3,80.3,0,0,0-11.24-3.89,60.37,60.37,0,0,0-11.73-1.87,53.92,53.92,0,0,0-23.3,3.71A61.69,61.69,0,0,0,545.53,260c-1.69,1-3.29,2.21-4.9,3.37s-3.15,2.42-4.62,3.76a76.67,76.67,0,0,0-8.42,8.39,57.61,57.61,0,0,0-6.68,9.82,60.34,60.34,0,0,0-6.63,22.7,78.67,78.67,0,0,0-.21,11.89,99.85,99.85,0,0,0,1.32,11.82,206.74,206.74,0,0,0,5.42,23.18c4.44,15.24,9.91,30.17,15.76,44.92h0l.27,1.38h0L543.47,420Zm-.46.18-6.64-18.78h0l-.27-1.38h0c-5.85-14.76-11.33-29.68-15.78-44.93a209.36,209.36,0,0,1-5.43-23.17A100,100,0,0,1,514,319.91a77.51,77.51,0,0,1,.2-11.9,60.13,60.13,0,0,1,6.63-22.72,57.12,57.12,0,0,1,6.68-9.83,77,77,0,0,1,8.43-8.41c1.46-1.33,3.06-2.52,4.61-3.76s3.21-2.33,4.91-3.37a61.51,61.51,0,0,1,10.59-5.43,54.08,54.08,0,0,1,23.34-3.72,61.58,61.58,0,0,1,11.75,1.86,81.19,81.19,0,0,1,11.24,3.9A97.07,97.07,0,0,1,613,261.94c1.74,1,3.38,2.08,5.07,3.12s3.31,2.2,4.91,3.38a180.93,180.93,0,0,1,18.29,15.23q4.34,4.08,8.45,8.39c2.71,2.9,5.35,5.87,7.85,8.95a158.09,158.09,0,0,1,24.21,40.84c.77,1.83,1.45,3.69,2.15,5.55s1.39,3.72,2,5.6q1.92,5.64,3.38,11.42c.48,1.93.93,3.86,1.34,5.81s.67,3.91,1,5.87l.45,2.95a21,21,0,0,1,.34,2.95l.24,6h0a6.14,6.14,0,0,0,.7,2.26,4.18,4.18,0,0,0,1.67,1.64,6.2,6.2,0,0,0,2.28.67c.79.09,1.6.06,2.41.1l9.67.26,19.34.52,19.35.52,9.68.27a16,16,0,0,0,2.4,0,4.67,4.67,0,0,0,2.2-.78,3.43,3.43,0,0,0,1.25-1.94,7,7,0,0,0,.12-2.37h0c-.12-3.39-.13-6.78-.35-10.16L762,368.82c-.91-6.73-2.12-13.42-3.65-20s-3.37-13.15-5.51-19.59-4.61-12.77-7.3-19a230.53,230.53,0,0,0-44.87-67.46,277.67,277.67,0,0,0-30.22-27.24,193.31,193.31,0,0,0-34.56-21.38c-1.5-.78-3.08-1.4-4.63-2.09s-3.1-1.4-4.69-2c-3.17-1.19-6.32-2.45-9.57-3.43l-2.42-.78c-.81-.27-1.62-.51-2.44-.72l-4.92-1.31c-1.63-.45-3.31-.73-5-1.1s-3.32-.74-5-1l-5-.79c-1.69-.22-3.38-.36-5.06-.54l-2.53-.26L582.1,180c-1.7-.08-3.39-.21-5.08-.25a133.58,133.58,0,0,0-20.29,1.19A127.68,127.68,0,0,0,537,185.58c-1.61.52-3.19,1.15-4.79,1.72l-2.38.88-2.34,1c-1.54.69-3.12,1.31-4.65,2.05l-4.54,2.28A137,137,0,0,0,501,204.29c-2.8,1.92-5.37,4.14-8.05,6.23-1.3,1.08-2.56,2.22-3.84,3.33s-2.56,2.22-3.77,3.42l-3.67,3.52c-1.24,1.16-2.35,2.44-3.54,3.65-2.39,2.41-4.52,5.05-6.74,7.61-1.08,1.31-2.07,2.69-3.11,4l-1.55,2-1.44,2.1c-.94,1.41-1.92,2.79-2.84,4.22l-2.62,4.36a119.8,119.8,0,0,0-8.68,18.36l-.9,2.38-.78,2.42c-.5,1.62-1.07,3.21-1.51,4.85-.85,3.28-1.76,6.55-2.35,9.89a150.67,150.67,0,0,0-2.25,40.5,219.59,219.59,0,0,0,7.06,40c3.57,13.09,7.72,26,12.45,38.75l7.36,19,6.61,19.28v0l.55,1.1h0c4.62,11.92,9,23.93,13,36.11a321.53,321.53,0,0,1,9.86,37.06c2.41,12.54,3.58,25.49,1.69,38.21a68.5,68.5,0,0,1-15.47,34.68c-.53.61-1,1.24-1.57,1.83L483.2,595c-1.07,1.2-2.28,2.25-3.42,3.37s-2.36,2.17-3.56,3.23-2.45,2.07-3.7,3.07a86.66,86.66,0,0,1-16.22,10.25A66.32,66.32,0,0,1,418.84,621a80.13,80.13,0,0,1-18.61-4.69A111.51,111.51,0,0,1,383,608a183.55,183.55,0,0,1-30.54-23.17,211,211,0,0,1-25.94-28.24,183.4,183.4,0,0,1-19.8-32.83,176.08,176.08,0,0,1-12.52-36.24c-.72-3.11-1.35-6.26-1.92-9.4s-1.13-6.31-1.5-9.49c-.15-1.61-.24-3.2-.36-4.79l-.17-2.4a15.53,15.53,0,0,0-.26-2.32A4,4,0,0,0,287.1,456a7.78,7.78,0,0,0-2.29-.3l-2.39-.07-38.32-1.21-19.16-.6a5.77,5.77,0,0,0-4.26,1.13,3.59,3.59,0,0,0-1,1.9,9.15,9.15,0,0,0-.12,2.3c0,3.19.19,6.37.5,9.54l1.2,9.5c.41,3.17.77,6.34,1.3,9.49q1.51,9.45,3.77,18.76t5.19,18.42c2.05,6,4.21,12,6.68,17.94s5.14,11.68,7.94,17.41,5.93,11.31,9.27,16.75a251.42,251.42,0,0,0,22.14,31.19,277.33,277.33,0,0,0,26.4,27.69,262.77,262.77,0,0,0,29.84,23.93,200,200,0,0,0,33.4,18.55,158.69,158.69,0,0,0,36.53,11A151,151,0,0,0,441.8,691a132.71,132.71,0,0,0,37-8.94,151.84,151.84,0,0,0,33.11-18.89c2.55-1.92,5-4,7.5-5.93s4.84-4.17,7.16-6.35a170.5,170.5,0,0,0,13.29-13.73,134.67,134.67,0,0,0,20.7-32l2-4.35c.63-1.46,1.15-3,1.73-4.45l.85-2.24.42-1.11.36-1.14,1.44-4.56c.51-1.51.88-3.06,1.27-4.6l1.18-4.63.92-4.69c.29-1.56.66-3.12.84-4.7A172.47,172.47,0,0,0,573,530.61a240.25,240.25,0,0,0-5.89-37.77q-2.18-9.31-4.87-18.51c-.45-1.53-.9-3.06-1.38-4.58l-1.51-4.54-3-9.09-3-9.08-.76-2.28-.38-1.13-.44-1.12-1.76-4.45c-2.39-5.94-4.63-11.92-6.91-17.88Z"/><text class="cls-3" transform="translate(559.34 691.92) scale(1.05 1)">d</text><path class="cls-4" d="M744.62,689.19c0,1.82-1,2.73-2.87,2.73H728c-1.77,0-2.66-.91-2.66-2.73v-29.5a86.58,86.58,0,0,1-30.5,23.44,90.14,90.14,0,0,1-39.31,8.79q-36.64,0-62.85-24.8-26-25-26-60,0-35.16,26-60,26.2-25,62.85-25A90.14,90.14,0,0,1,694.87,531a86.81,86.81,0,0,1,30.5,23.44V414.77c0-1.82.89-2.73,2.66-2.73h13.72c1.91,0,2.87.91,2.87,2.73Zm-89.06-15.63q28.88,0,49.34-19.53t20.47-46.87q0-27.54-20.47-47.08t-49.34-19.53q-28.66,0-49.13,19.53T586,607.16q0,27.35,20.47,46.87T655.56,673.56Z"/><path d="M745.12,689.19a3.72,3.72,0,0,1-.42,1.81,2.64,2.64,0,0,1-1.53,1.22,5.81,5.81,0,0,1-1.76.2h-13a4.77,4.77,0,0,1-1.78-.24,2.51,2.51,0,0,1-1.41-1.36,4.28,4.28,0,0,1-.29-1.79V659.69l.84.31a87.16,87.16,0,0,1-20.3,17.86,93.26,93.26,0,0,1-12,6.4,90.12,90.12,0,0,1-12.72,4.67A91.76,91.76,0,0,1,654,692.31a95.53,95.53,0,0,1-13.51-1.11,84.2,84.2,0,0,1-13.2-3.05,90.55,90.55,0,0,1-43.77-30.66,79.92,79.92,0,0,1-12.88-23.72,77.38,77.38,0,0,1-3.21-13.17,93.84,93.84,0,0,1-1-13.5,95.2,95.2,0,0,1,1-13.5,77.3,77.3,0,0,1,3.22-13.16,79.16,79.16,0,0,1,12.93-23.68,100.59,100.59,0,0,1,9.15-10,103.85,103.85,0,0,1,10.44-8.62,86.11,86.11,0,0,1,24.14-12,82.85,82.85,0,0,1,13.18-3.05A93.8,93.8,0,0,1,654,522a91.4,91.4,0,0,1,26.77,3.41A89.75,89.75,0,0,1,693.41,530a94.09,94.09,0,0,1,11.92,6.39,87.22,87.22,0,0,1,20.23,17.85l-.42.15.06-109.17V414.53a3,3,0,0,1,.51-1.69,2.39,2.39,0,0,1,1.55-.9,11.21,11.21,0,0,1,1.73-.06H741a9.23,9.23,0,0,1,1.73.08,2.55,2.55,0,0,1,1.54.88,3.05,3.05,0,0,1,.54,1.69c0,.58,0,1.14,0,1.71l0,54.59-.11,218.35Zm-.5,0-.12-218.35,0-54.59c0-1.12.18-2.35-.49-3.21a2.2,2.2,0,0,0-1.36-.77,9.17,9.17,0,0,0-1.67-.08H729a10.32,10.32,0,0,0-1.68.06A2,2,0,0,0,726,413a2.8,2.8,0,0,0-.45,1.52v30.7l.06,109.17v.66l-.42-.51a86.62,86.62,0,0,0-20.13-17.72,93.1,93.1,0,0,0-11.86-6.35,90.06,90.06,0,0,0-12.63-4.63A91.3,91.3,0,0,0,654,522.51a92.71,92.71,0,0,0-13.41,1.12,82.59,82.59,0,0,0-13.09,3,85.22,85.22,0,0,0-24,12,102.42,102.42,0,0,0-10.36,8.57,100.25,100.25,0,0,0-9.08,9.92,78.43,78.43,0,0,0-12.79,23.5,77,77,0,0,0-3.18,13,88.46,88.46,0,0,0,0,26.79,76.86,76.86,0,0,0,3.2,13A79.07,79.07,0,0,0,584.08,657a89.66,89.66,0,0,0,43.41,30.34,83.76,83.76,0,0,0,13.08,3A95.31,95.31,0,0,0,654,691.46a91.28,91.28,0,0,0,26.56-3.38,89.27,89.27,0,0,0,12.6-4.64A92.07,92.07,0,0,0,705,677.09,86,86,0,0,0,725,659.39l.83-1v1.3l0,26.07V689c0,1,.26,2,1.09,2.24a3.72,3.72,0,0,0,1.42.17h13a4.53,4.53,0,0,0,1.46-.15,1.92,1.92,0,0,0,1.25-2.08Z"/><path d="M655.56,673.06a72.21,72.21,0,0,0,26-4.61,69,69,0,0,0,22.34-14.14A66.88,66.88,0,0,0,719.59,633a65.22,65.22,0,0,0,.12-51.74,66.74,66.74,0,0,0-15.54-21.43,69.12,69.12,0,0,0-22.32-14.28,75.17,75.17,0,0,0-52.22-.14,69.21,69.21,0,0,0-22.42,14.2A67.07,67.07,0,0,0,591.53,581a65.62,65.62,0,0,0-.16,52A67.15,67.15,0,0,0,607,654.45a69.07,69.07,0,0,0,22.39,14.35,71.79,71.79,0,0,0,26.18,4.76Zm0,.5a72,72,0,0,1-26.21-4.7,69.6,69.6,0,0,1-22.45-14.31A67.36,67.36,0,0,1,591.2,633a65.88,65.88,0,0,1,0-52.15A67.32,67.32,0,0,1,607,559.35,69.57,69.57,0,0,1,629.47,545a75.68,75.68,0,0,1,52.59,0,69.6,69.6,0,0,1,22.54,14.35A67.36,67.36,0,0,1,720.34,581a66,66,0,0,1,0,52.35A67.7,67.7,0,0,1,704.54,655a69.87,69.87,0,0,1-22.6,14.37,73.15,73.15,0,0,1-26.38,4.74Z"/><line class="cls-5" x1="744.4" y1="692.09" x2="106.9" y2="692.09"/></g></g></svg>